# xmcd CD database file
#
# Track frame offsets:
#	182
#	12065
#	28327
#	45470
#	66340
#	79657
#	93057
#	109247
#	122475
#	134947
#	155640
#	173480
#	184567
#	196872
#	211237
#
# Disc length: 3023 seconds
#
# Revision: 3
# Processed by: cddbd v1.5.2PL0 Copyright (c) Steve Scherf et al.
# Submitted via: CDex 1.51
#
DISCID=c30bcd0f
DTITLE=Hank Williams, Jr. - The Complete Hank Williams, Jr. 3
DYEAR=1999
DGENRE=Country
TTITLE0=Gonna Go Huntin' Tonight
TTITLE1=Leave Them Boys Alone
TTITLE2=Queen Of My Heart
TTITLE3=Man Of Steel
TTITLE4=Attitude Adjustment
TTITLE5=All My Rowdy Friends Are Coming
TTITLE6=Major Moves
TTITLE7=I'm For Love
TTITLE8=This Ain't Dallas
TTITLE9=Ain't Misbehavin'
TTITLE10=Country State Of Mind
TTITLE11=Mind Your Own Business
TTITLE12=Born To Boogie
TTITLE13=Heaven Can't Be Found
TTITLE14=Young Country
EXTD=YEAR: 1999
EXTT0=
EXTT1=
EXTT2=
EXTT3=
EXTT4=
EXTT5=
EXTT6=
EXTT7=
EXTT8=
EXTT9=
EXTT10=
EXTT11=
EXTT12=
EXTT13=
EXTT14=
PLAYORDER=
